<mxfile host="app.diagrams.net" agent="Mozilla/5.0 (Windows NT 10.0; Win64; x64) AppleWebKit/537.36 (KHTML, like Gecko) Chrome/133.0.0.0 Safari/537.36" version="26.0.16">
  <diagram id="Ht1M8jgEwFfnCIfOTk4-" name="Page-1">
    <mxGraphModel grid="1" page="1" gridSize="10" guides="1" tooltips="1" connect="1" arrows="1" fold="1" pageScale="1" pageWidth="827" pageHeight="1169" math="0" shadow="0">
      <root>
        <mxCell id="0" />
        <mxCell id="1" parent="0" />
        <mxCell id="eSSQTLTpPXMiFd9yhnWM-21" value="" style="fillColor=none;strokeColor=#147EBA;dashed=1;verticalAlign=top;fontStyle=0;fontColor=#147EBA;whiteSpace=wrap;html=1;direction=south;" vertex="1" parent="1">
          <mxGeometry x="331" y="780" width="1199" height="340" as="geometry" />
        </mxCell>
        <mxCell id="ySRl7X2KVEB3qlMEF3kM-81" value="" style="fillColor=none;strokeColor=#FF8000;verticalAlign=top;fontStyle=0;fontColor=#5A6C86;whiteSpace=wrap;html=1;" vertex="1" parent="1">
          <mxGeometry x="601" y="370" width="489" height="750" as="geometry" />
        </mxCell>
        <mxCell id="eSSQTLTpPXMiFd9yhnWM-20" value="" style="fillColor=none;strokeColor=#147EBA;dashed=1;verticalAlign=top;fontStyle=0;fontColor=#147EBA;whiteSpace=wrap;html=1;direction=south;" vertex="1" parent="1">
          <mxGeometry x="317.58" y="350" width="1201.42" height="306" as="geometry" />
        </mxCell>
        <mxCell id="-QjtrjUzRDEMRZ5MF8oH-47" value="3ì¡°_&lt;span style=&quot;background-color: transparent; color: light-dark(rgb(0, 0, 0), rgb(255, 255, 255));&quot;&gt;AWS Project Architecture&amp;nbsp;&lt;/span&gt;" style="text;html=1;resizable=0;points=[];autosize=1;align=left;verticalAlign=top;spacingTop=-4;fontSize=30;fontStyle=1;labelBackgroundColor=none;" vertex="1" parent="1">
          <mxGeometry x="32.5" width="430" height="40" as="geometry" />
        </mxCell>
        <mxCell id="SCVMTBWpLvtzJIhz15lM-1" value="" style="line;strokeWidth=2;html=1;fontSize=14;labelBackgroundColor=none;" vertex="1" parent="1">
          <mxGeometry x="21" y="36" width="1587.5" height="10" as="geometry" />
        </mxCell>
        <mxCell id="IEoBhDquX4Ll0wp5H7QY-13" style="edgeStyle=orthogonalEdgeStyle;rounded=0;orthogonalLoop=1;jettySize=auto;html=1;" edge="1" parent="1" target="IEoBhDquX4Ll0wp5H7QY-10">
          <mxGeometry relative="1" as="geometry">
            <mxPoint x="51" y="380" as="sourcePoint" />
            <mxPoint x="51" y="596" as="targetPoint" />
          </mxGeometry>
        </mxCell>
        <mxCell id="eSSQTLTpPXMiFd9yhnWM-3" value="users" style="sketch=0;outlineConnect=0;gradientColor=none;fontColor=#545B64;strokeColor=none;fillColor=#879196;dashed=0;verticalLabelPosition=bottom;verticalAlign=top;align=center;html=1;fontSize=12;fontStyle=0;aspect=fixed;shape=mxgraph.aws4.illustration_users;pointerEvents=1" vertex="1" parent="1">
          <mxGeometry x="21" y="309" width="60" height="60" as="geometry" />
        </mxCell>
        <mxCell id="eSSQTLTpPXMiFd9yhnWM-4" value="Region" style="points=[[0,0],[0.25,0],[0.5,0],[0.75,0],[1,0],[1,0.25],[1,0.5],[1,0.75],[1,1],[0.75,1],[0.5,1],[0.25,1],[0,1],[0,0.75],[0,0.5],[0,0.25]];outlineConnect=0;gradientColor=none;html=1;whiteSpace=wrap;fontSize=12;fontStyle=0;container=0;pointerEvents=0;collapsible=0;recursiveResize=0;shape=mxgraph.aws4.group;grIcon=mxgraph.aws4.group_region;strokeColor=#00A4A6;fillColor=none;verticalAlign=top;align=left;spacingLeft=30;fontColor=#147EBA;dashed=1;" vertex="1" parent="1">
          <mxGeometry x="100" y="200" width="1525" height="960" as="geometry" />
        </mxCell>
        <mxCell id="eSSQTLTpPXMiFd9yhnWM-50" value="" style="sketch=0;points=[[0,0,0],[0.25,0,0],[0.5,0,0],[0.75,0,0],[1,0,0],[0,1,0],[0.25,1,0],[0.5,1,0],[0.75,1,0],[1,1,0],[0,0.25,0],[0,0.5,0],[0,0.75,0],[1,0.25,0],[1,0.5,0],[1,0.75,0]];outlineConnect=0;fontColor=#232F3E;fillColor=#ED7100;strokeColor=#ffffff;dashed=0;verticalLabelPosition=bottom;verticalAlign=top;align=center;html=1;fontSize=12;fontStyle=0;aspect=fixed;shape=mxgraph.aws4.resourceIcon;resIcon=mxgraph.aws4.eks;" vertex="1" parent="1">
          <mxGeometry x="601" y="370" width="45" height="45" as="geometry" />
        </mxCell>
        <mxCell id="IEoBhDquX4Ll0wp5H7QY-53" value="" style="aspect=fixed;sketch=0;html=1;dashed=0;whitespace=wrap;verticalLabelPosition=bottom;verticalAlign=top;fillColor=#2875E2;strokeColor=#ffffff;points=[[0.005,0.63,0],[0.1,0.2,0],[0.9,0.2,0],[0.5,0,0],[0.995,0.63,0],[0.72,0.99,0],[0.5,1,0],[0.28,0.99,0]];shape=mxgraph.kubernetes.icon2;kubernetesLabel=1;prIcon=api" vertex="1" parent="1">
          <mxGeometry x="705.38" y="244" width="50" height="48" as="geometry" />
        </mxCell>
        <mxCell id="IEoBhDquX4Ll0wp5H7QY-11" value="Internet" style="text;html=1;align=center;verticalAlign=middle;whiteSpace=wrap;rounded=0;" vertex="1" parent="1">
          <mxGeometry x="21" y="594" width="60" height="30" as="geometry" />
        </mxCell>
        <mxCell id="IEoBhDquX4Ll0wp5H7QY-10" value="" style="sketch=0;outlineConnect=0;fontColor=#232F3E;gradientColor=none;fillColor=#232F3D;strokeColor=none;dashed=0;verticalLabelPosition=bottom;verticalAlign=top;align=center;html=1;fontSize=12;fontStyle=0;aspect=fixed;pointerEvents=1;shape=mxgraph.aws4.internet;" vertex="1" parent="1">
          <mxGeometry x="12" y="546" width="78" height="48" as="geometry" />
        </mxCell>
        <mxCell id="ySRl7X2KVEB3qlMEF3kM-73" style="edgeStyle=orthogonalEdgeStyle;rounded=0;orthogonalLoop=1;jettySize=auto;html=1;entryX=0;entryY=0.5;entryDx=0;entryDy=0;entryPerimeter=0;exitX=0.5;exitY=1;exitDx=0;exitDy=0;" edge="1" parent="1" source="IEoBhDquX4Ll0wp5H7QY-11" target="eSSQTLTpPXMiFd9yhnWM-5">
          <mxGeometry relative="1" as="geometry">
            <mxPoint x="50" y="674" as="sourcePoint" />
            <mxPoint x="151" y="708.5" as="targetPoint" />
            <Array as="points">
              <mxPoint x="50" y="624" />
              <mxPoint x="50" y="708" />
            </Array>
          </mxGeometry>
        </mxCell>
        <mxCell id="eSSQTLTpPXMiFd9yhnWM-61" value="EKS Cluster" style="text;html=1;align=center;verticalAlign=middle;whiteSpace=wrap;rounded=0;" vertex="1" parent="1">
          <mxGeometry x="597" y="422" width="55" height="17" as="geometry" />
        </mxCell>
        <mxCell id="ySRl7X2KVEB3qlMEF3kM-109" value="" style="endArrow=none;dashed=1;html=1;rounded=0;entryX=1;entryY=0.5;entryDx=0;entryDy=0;entryPerimeter=0;exitX=0.5;exitY=0;exitDx=0;exitDy=0;exitPerimeter=0;strokeColor=light-dark(#FF0000,#FFFFFF);" edge="1" parent="1" source="eSSQTLTpPXMiFd9yhnWM-50" target="eSSQTLTpPXMiFd9yhnWM-62">
          <mxGeometry width="50" height="50" relative="1" as="geometry">
            <mxPoint x="770" y="670" as="sourcePoint" />
            <mxPoint x="820" y="620" as="targetPoint" />
            <Array as="points">
              <mxPoint x="624" y="255" />
            </Array>
          </mxGeometry>
        </mxCell>
        <mxCell id="eSSQTLTpPXMiFd9yhnWM-67" value="" style="fillColor=none;strokeColor=#5A6C86;dashed=1;verticalAlign=top;fontStyle=0;fontColor=#5A6C86;whiteSpace=wrap;html=1;" vertex="1" parent="1">
          <mxGeometry x="478" y="206" width="91" height="114" as="geometry" />
        </mxCell>
        <mxCell id="eSSQTLTpPXMiFd9yhnWM-15" value="&lt;font style=&quot;color: rgb(0, 0, 0);&quot;&gt;VPC (10.100.0.0/16)&lt;/font&gt;" style="points=[[0,0],[0.25,0],[0.5,0],[0.75,0],[1,0],[1,0.25],[1,0.5],[1,0.75],[1,1],[0.75,1],[0.5,1],[0.25,1],[0,1],[0,0.75],[0,0.5],[0,0.25]];outlineConnect=0;gradientColor=none;html=1;whiteSpace=wrap;fontSize=12;fontStyle=0;container=1;pointerEvents=0;collapsible=0;recursiveResize=0;shape=mxgraph.aws4.group;grIcon=mxgraph.aws4.group_vpc2;strokeColor=#8C4FFF;fillColor=none;verticalAlign=top;align=left;spacingLeft=30;fontColor=#AAB7B8;dashed=0;" vertex="1" parent="1">
          <mxGeometry x="260" y="330" width="1319" height="820" as="geometry" />
        </mxCell>
        <mxCell id="eSSQTLTpPXMiFd9yhnWM-17" value="Public subnet (10.100.100.0/24)" style="points=[[0,0],[0.25,0],[0.5,0],[0.75,0],[1,0],[1,0.25],[1,0.5],[1,0.75],[1,1],[0.75,1],[0.5,1],[0.25,1],[0,1],[0,0.75],[0,0.5],[0,0.25]];outlineConnect=0;gradientColor=none;html=1;whiteSpace=wrap;fontSize=12;fontStyle=0;container=1;pointerEvents=0;collapsible=0;recursiveResize=0;shape=mxgraph.aws4.group;grIcon=mxgraph.aws4.group_security_group;grStroke=0;strokeColor=#7AA116;fillColor=#F2F6E8;verticalAlign=top;align=left;spacingLeft=30;fontColor=#248814;dashed=0;" vertex="1" parent="eSSQTLTpPXMiFd9yhnWM-15">
          <mxGeometry x="91" y="90.52" width="230" height="180" as="geometry" />
        </mxCell>
        <mxCell id="eSSQTLTpPXMiFd9yhnWM-26" value="" style="sketch=0;outlineConnect=0;fontColor=#232F3E;gradientColor=none;fillColor=#ED7100;strokeColor=none;dashed=0;verticalLabelPosition=bottom;verticalAlign=top;align=center;html=1;fontSize=12;fontStyle=0;aspect=fixed;pointerEvents=1;shape=mxgraph.aws4.instance2;" vertex="1" parent="eSSQTLTpPXMiFd9yhnWM-15">
          <mxGeometry x="103" y="170" width="40" height="40" as="geometry" />
        </mxCell>
        <mxCell id="eSSQTLTpPXMiFd9yhnWM-28" value="NAT Gateway&lt;br&gt;(13.124.67.200)" style="text;html=1;align=center;verticalAlign=middle;whiteSpace=wrap;rounded=0;" vertex="1" parent="eSSQTLTpPXMiFd9yhnWM-15">
          <mxGeometry x="180" y="225" width="96" height="30" as="geometry" />
        </mxCell>
        <mxCell id="ySRl7X2KVEB3qlMEF3kM-69" value="AWS Managed Server(ubuntu)&lt;br&gt;(10.0.1.148)" style="text;html=1;align=center;verticalAlign=middle;whiteSpace=wrap;rounded=0;" vertex="1" parent="eSSQTLTpPXMiFd9yhnWM-15">
          <mxGeometry x="132" y="129" width="202" height="30" as="geometry" />
        </mxCell>
        <mxCell id="eSSQTLTpPXMiFd9yhnWM-27" value="Bastion Server&lt;br&gt;(10.0.1.136)" style="text;html=1;align=center;verticalAlign=middle;whiteSpace=wrap;rounded=0;" vertex="1" parent="eSSQTLTpPXMiFd9yhnWM-15">
          <mxGeometry x="180.31" y="175" width="97.38" height="30" as="geometry" />
        </mxCell>
        <mxCell id="IEoBhDquX4Ll0wp5H7QY-5" value="Public subnet(10.100.110.0/24)" style="points=[[0,0],[0.25,0],[0.5,0],[0.75,0],[1,0],[1,0.25],[1,0.5],[1,0.75],[1,1],[0.75,1],[0.5,1],[0.25,1],[0,1],[0,0.75],[0,0.5],[0,0.25]];outlineConnect=0;gradientColor=none;html=1;whiteSpace=wrap;fontSize=12;fontStyle=0;container=0;pointerEvents=0;collapsible=0;recursiveResize=0;shape=mxgraph.aws4.group;grIcon=mxgraph.aws4.group_security_group;grStroke=0;strokeColor=#7AA116;fillColor=#F2F6E8;verticalAlign=top;align=left;spacingLeft=30;fontColor=#248814;dashed=0;" vertex="1" parent="eSSQTLTpPXMiFd9yhnWM-15">
          <mxGeometry x="88" y="500" width="233" height="194.75" as="geometry" />
        </mxCell>
        <mxCell id="eSSQTLTpPXMiFd9yhnWM-31" value="Private subnet" style="points=[[0,0],[0.25,0],[0.5,0],[0.75,0],[1,0],[1,0.25],[1,0.5],[1,0.75],[1,1],[0.75,1],[0.5,1],[0.25,1],[0,1],[0,0.75],[0,0.5],[0,0.25]];outlineConnect=0;gradientColor=none;html=1;whiteSpace=wrap;fontSize=12;fontStyle=0;container=1;pointerEvents=0;collapsible=0;recursiveResize=0;shape=mxgraph.aws4.group;grIcon=mxgraph.aws4.group_security_group;grStroke=0;strokeColor=#00A4A6;fillColor=#E6F6F7;verticalAlign=top;align=left;spacingLeft=30;fontColor=#147EBA;dashed=0;" vertex="1" parent="eSSQTLTpPXMiFd9yhnWM-15">
          <mxGeometry x="947" y="90" width="223" height="180" as="geometry" />
        </mxCell>
        <mxCell id="eSSQTLTpPXMiFd9yhnWM-87" value="" style="sketch=0;outlineConnect=0;fontColor=#232F3E;gradientColor=none;fillColor=#C925D1;strokeColor=none;dashed=0;verticalLabelPosition=bottom;verticalAlign=top;align=center;html=1;fontSize=12;fontStyle=0;aspect=fixed;pointerEvents=1;shape=mxgraph.aws4.rds_instance;" vertex="1" parent="eSSQTLTpPXMiFd9yhnWM-31">
          <mxGeometry x="14" y="45.75" width="50" height="50" as="geometry" />
        </mxCell>
        <mxCell id="eSSQTLTpPXMiFd9yhnWM-88" value="Maria DB&lt;br&gt;(Master)" style="text;html=1;align=center;verticalAlign=middle;whiteSpace=wrap;rounded=0;" vertex="1" parent="eSSQTLTpPXMiFd9yhnWM-31">
          <mxGeometry x="67.75" y="55.75" width="75.25" height="30" as="geometry" />
        </mxCell>
        <mxCell id="eSSQTLTpPXMiFd9yhnWM-148" value="&lt;span style=&quot;color: rgb(20, 126, 186);&quot;&gt;ap-northeast-2a&lt;/span&gt;" style="text;html=1;align=center;verticalAlign=middle;whiteSpace=wrap;rounded=0;" vertex="1" parent="eSSQTLTpPXMiFd9yhnWM-15">
          <mxGeometry x="73" y="27" width="95" height="30" as="geometry" />
        </mxCell>
        <mxCell id="eSSQTLTpPXMiFd9yhnWM-147" value="&lt;span style=&quot;color: rgb(20, 126, 186);&quot;&gt;ap-northeast-2c&lt;/span&gt;" style="text;html=1;align=center;verticalAlign=middle;whiteSpace=wrap;rounded=0;" vertex="1" parent="eSSQTLTpPXMiFd9yhnWM-15">
          <mxGeometry x="71" y="450" width="95" height="30" as="geometry" />
        </mxCell>
        <mxCell id="eSSQTLTpPXMiFd9yhnWM-32" value="pri-ng-worker2(10.100.210.0/24)" style="points=[[0,0],[0.25,0],[0.5,0],[0.75,0],[1,0],[1,0.25],[1,0.5],[1,0.75],[1,1],[0.75,1],[0.5,1],[0.25,1],[0,1],[0,0.75],[0,0.5],[0,0.25]];outlineConnect=0;gradientColor=none;html=1;whiteSpace=wrap;fontSize=12;fontStyle=0;container=1;pointerEvents=0;collapsible=0;recursiveResize=0;shape=mxgraph.aws4.group;grIcon=mxgraph.aws4.group_security_group;grStroke=0;strokeColor=#00A4A6;fillColor=#E6F6F7;verticalAlign=top;align=left;spacingLeft=30;fontColor=#147EBA;dashed=0;" vertex="1" parent="eSSQTLTpPXMiFd9yhnWM-15">
          <mxGeometry x="420" y="505.25" width="390" height="194.75" as="geometry" />
        </mxCell>
        <mxCell id="ySRl7X2KVEB3qlMEF3kM-55" value="" style="rounded=1;whiteSpace=wrap;html=1;fillStyle=auto;fillColor=none;dashed=1;" vertex="1" parent="eSSQTLTpPXMiFd9yhnWM-32">
          <mxGeometry x="15" y="45.75" width="360" height="125.25" as="geometry" />
        </mxCell>
        <mxCell id="eSSQTLTpPXMiFd9yhnWM-452" value="" style="aspect=fixed;sketch=0;html=1;dashed=0;whitespace=wrap;verticalLabelPosition=bottom;verticalAlign=top;fillColor=#2875E2;strokeColor=#ffffff;points=[[0.005,0.63,0],[0.1,0.2,0],[0.9,0.2,0],[0.5,0,0],[0.995,0.63,0],[0.72,0.99,0],[0.5,1,0],[0.28,0.99,0]];shape=mxgraph.kubernetes.icon2;kubernetesLabel=1;prIcon=pod" vertex="1" parent="eSSQTLTpPXMiFd9yhnWM-32">
          <mxGeometry x="274" y="78.75" width="43.23" height="41.5" as="geometry" />
        </mxCell>
        <mxCell id="eSSQTLTpPXMiFd9yhnWM-459" value="Tomcat" style="text;html=1;align=center;verticalAlign=middle;whiteSpace=wrap;rounded=0;" vertex="1" parent="eSSQTLTpPXMiFd9yhnWM-32">
          <mxGeometry x="271.62" y="118.05999999999995" width="60" height="30" as="geometry" />
        </mxCell>
        <mxCell id="eSSQTLTpPXMiFd9yhnWM-458" value="Nginx" style="text;html=1;align=center;verticalAlign=middle;whiteSpace=wrap;rounded=0;" vertex="1" parent="eSSQTLTpPXMiFd9yhnWM-32">
          <mxGeometry x="69.09" y="118.05999999999995" width="60" height="30" as="geometry" />
        </mxCell>
        <mxCell id="eSSQTLTpPXMiFd9yhnWM-453" value="" style="aspect=fixed;sketch=0;html=1;dashed=0;whitespace=wrap;verticalLabelPosition=bottom;verticalAlign=top;fillColor=#2875E2;strokeColor=#ffffff;points=[[0.005,0.63,0],[0.1,0.2,0],[0.9,0.2,0],[0.5,0,0],[0.995,0.63,0],[0.72,0.99,0],[0.5,1,0],[0.28,0.99,0]];shape=mxgraph.kubernetes.icon2;kubernetesLabel=1;prIcon=pod" vertex="1" parent="eSSQTLTpPXMiFd9yhnWM-32">
          <mxGeometry x="76.30000000000018" y="78.74999999999994" width="45.58" height="43.75" as="geometry" />
        </mxCell>
        <mxCell id="eSSQTLTpPXMiFd9yhnWM-42" value="" style="group" connectable="0" vertex="1" parent="eSSQTLTpPXMiFd9yhnWM-15">
          <mxGeometry y="349" width="90" height="90" as="geometry" />
        </mxCell>
        <mxCell id="eSSQTLTpPXMiFd9yhnWM-9" value="" style="sketch=0;outlineConnect=0;fontColor=#232F3E;gradientColor=none;fillColor=#8C4FFF;strokeColor=none;dashed=0;verticalLabelPosition=bottom;verticalAlign=top;align=center;html=1;fontSize=12;fontStyle=0;aspect=fixed;pointerEvents=1;shape=mxgraph.aws4.internet_gateway;" vertex="1" parent="eSSQTLTpPXMiFd9yhnWM-42">
          <mxGeometry x="15" width="60" height="60" as="geometry" />
        </mxCell>
        <mxCell id="eSSQTLTpPXMiFd9yhnWM-13" value="IGW" style="text;html=1;align=center;verticalAlign=middle;whiteSpace=wrap;rounded=0;" vertex="1" parent="eSSQTLTpPXMiFd9yhnWM-42">
          <mxGeometry y="60" width="90" height="30" as="geometry" />
        </mxCell>
        <mxCell id="eSSQTLTpPXMiFd9yhnWM-394" value="" style="aspect=fixed;sketch=0;html=1;dashed=0;whitespace=wrap;verticalLabelPosition=bottom;verticalAlign=top;fillColor=#2875E2;strokeColor=#ffffff;points=[[0.005,0.63,0],[0.1,0.2,0],[0.9,0.2,0],[0.5,0,0],[0.995,0.63,0],[0.72,0.99,0],[0.5,1,0],[0.28,0.99,0]];shape=mxgraph.kubernetes.icon2;kubernetesLabel=1;prIcon=node" vertex="1" parent="eSSQTLTpPXMiFd9yhnWM-15">
          <mxGeometry x="758.75" y="520" width="52.08" height="50" as="geometry" />
        </mxCell>
        <mxCell id="ySRl7X2KVEB3qlMEF3kM-75" value="" style="sketch=0;outlineConnect=0;fontColor=#232F3E;gradientColor=none;fillColor=#8C4FFF;strokeColor=none;dashed=0;verticalLabelPosition=bottom;verticalAlign=top;align=center;html=1;fontSize=12;fontStyle=0;aspect=fixed;pointerEvents=1;shape=mxgraph.aws4.network_load_balancer;" vertex="1" parent="eSSQTLTpPXMiFd9yhnWM-15">
          <mxGeometry x="270" y="349" width="60" height="60" as="geometry" />
        </mxCell>
        <mxCell id="ySRl7X2KVEB3qlMEF3kM-79" value="Network LoadBalancer" style="text;html=1;align=center;verticalAlign=middle;whiteSpace=wrap;rounded=0;" vertex="1" parent="eSSQTLTpPXMiFd9yhnWM-15">
          <mxGeometry x="255" y="409" width="85" height="30" as="geometry" />
        </mxCell>
        <mxCell id="eSSQTLTpPXMiFd9yhnWM-29" value="pri-ng-worker1(10.100.200.0/24)" style="points=[[0,0],[0.25,0],[0.5,0],[0.75,0],[1,0],[1,0.25],[1,0.5],[1,0.75],[1,1],[0.75,1],[0.5,1],[0.25,1],[0,1],[0,0.75],[0,0.5],[0,0.25]];outlineConnect=0;gradientColor=none;html=1;whiteSpace=wrap;fontSize=12;fontStyle=0;container=1;pointerEvents=0;collapsible=0;recursiveResize=0;shape=mxgraph.aws4.group;grIcon=mxgraph.aws4.group_security_group;grStroke=0;strokeColor=#00A4A6;fillColor=#E6F6F7;verticalAlign=top;align=left;spacingLeft=30;fontColor=#147EBA;dashed=0;" vertex="1" parent="eSSQTLTpPXMiFd9yhnWM-15">
          <mxGeometry x="420" y="90" width="392.7555555555556" height="180" as="geometry" />
        </mxCell>
        <mxCell id="ySRl7X2KVEB3qlMEF3kM-70" value="" style="rounded=1;whiteSpace=wrap;html=1;fillColor=none;dashed=1;" vertex="1" parent="eSSQTLTpPXMiFd9yhnWM-15">
          <mxGeometry x="438.4111111111111" y="120" width="359.3666666666667" height="135" as="geometry" />
        </mxCell>
        <mxCell id="eSSQTLTpPXMiFd9yhnWM-383" value="" style="aspect=fixed;sketch=0;html=1;dashed=0;whitespace=wrap;verticalLabelPosition=bottom;verticalAlign=top;fillColor=#2875E2;strokeColor=#ffffff;points=[[0.005,0.63,0],[0.1,0.2,0],[0.9,0.2,0],[0.5,0,0],[0.995,0.63,0],[0.72,0.99,0],[0.5,1,0],[0.28,0.99,0]];shape=mxgraph.kubernetes.icon2;kubernetesLabel=1;prIcon=pod" vertex="1" parent="eSSQTLTpPXMiFd9yhnWM-15">
          <mxGeometry x="695.23" y="162" width="41.67" height="40" as="geometry" />
        </mxCell>
        <mxCell id="eSSQTLTpPXMiFd9yhnWM-392" value="Tomcat" style="text;html=1;align=center;verticalAlign=middle;whiteSpace=wrap;rounded=0;" vertex="1" parent="eSSQTLTpPXMiFd9yhnWM-15">
          <mxGeometry x="663.479142300195" y="200" width="103.80116959064327" height="30" as="geometry" />
        </mxCell>
        <mxCell id="eSSQTLTpPXMiFd9yhnWM-391" value="Nginx" style="text;html=1;align=center;verticalAlign=middle;whiteSpace=wrap;rounded=0;" vertex="1" parent="eSSQTLTpPXMiFd9yhnWM-15">
          <mxGeometry x="468.1464424951268" y="200" width="103.80116959064327" height="30" as="geometry" />
        </mxCell>
        <mxCell id="eSSQTLTpPXMiFd9yhnWM-382" value="" style="aspect=fixed;sketch=0;html=1;dashed=0;whitespace=wrap;verticalLabelPosition=bottom;verticalAlign=top;fillColor=#2875E2;strokeColor=#ffffff;points=[[0.005,0.63,0],[0.1,0.2,0],[0.9,0.2,0],[0.5,0,0],[0.995,0.63,0],[0.72,0.99,0],[0.5,1,0],[0.28,0.99,0]];shape=mxgraph.kubernetes.icon2;kubernetesLabel=1;prIcon=pod" vertex="1" parent="eSSQTLTpPXMiFd9yhnWM-15">
          <mxGeometry x="499.9" y="162" width="41.67" height="40" as="geometry" />
        </mxCell>
        <mxCell id="eSSQTLTpPXMiFd9yhnWM-380" value="" style="aspect=fixed;sketch=0;html=1;dashed=0;whitespace=wrap;verticalLabelPosition=bottom;verticalAlign=top;fillColor=#2875E2;strokeColor=#ffffff;points=[[0.005,0.63,0],[0.1,0.2,0],[0.9,0.2,0],[0.5,0,0],[0.995,0.63,0],[0.72,0.99,0],[0.5,1,0],[0.28,0.99,0]];shape=mxgraph.kubernetes.icon2;kubernetesLabel=1;prIcon=node" vertex="1" parent="eSSQTLTpPXMiFd9yhnWM-15">
          <mxGeometry x="759.33" y="92.52" width="52.67" height="50.56" as="geometry" />
        </mxCell>
        <mxCell id="ySRl7X2KVEB3qlMEF3kM-84" value="" style="endArrow=classic;html=1;rounded=0;entryX=0;entryY=0;entryDx=0;entryDy=0;exitX=0.75;exitY=0;exitDx=0;exitDy=0;" edge="1" parent="eSSQTLTpPXMiFd9yhnWM-15" source="ySRl7X2KVEB3qlMEF3kM-79" target="ySRl7X2KVEB3qlMEF3kM-55">
          <mxGeometry width="50" height="50" relative="1" as="geometry">
            <mxPoint x="310" y="360" as="sourcePoint" />
            <mxPoint x="360" y="310" as="targetPoint" />
          </mxGeometry>
        </mxCell>
        <mxCell id="ySRl7X2KVEB3qlMEF3kM-94" value="" style="aspect=fixed;sketch=0;html=1;dashed=0;whitespace=wrap;verticalLabelPosition=bottom;verticalAlign=top;fillColor=#2875E2;strokeColor=#ffffff;points=[[0.005,0.63,0],[0.1,0.2,0],[0.9,0.2,0],[0.5,0,0],[0.995,0.63,0],[0.72,0.99,0],[0.5,1,0],[0.28,0.99,0]];shape=mxgraph.kubernetes.icon2;kubernetesLabel=1;prIcon=hpa" vertex="1" parent="eSSQTLTpPXMiFd9yhnWM-15">
          <mxGeometry x="691.23" y="359.72" width="50" height="48" as="geometry" />
        </mxCell>
        <mxCell id="ySRl7X2KVEB3qlMEF3kM-93" value="" style="aspect=fixed;sketch=0;html=1;dashed=0;whitespace=wrap;verticalLabelPosition=bottom;verticalAlign=top;fillColor=#2875E2;strokeColor=#ffffff;points=[[0.005,0.63,0],[0.1,0.2,0],[0.9,0.2,0],[0.5,0,0],[0.995,0.63,0],[0.72,0.99,0],[0.5,1,0],[0.28,0.99,0]];shape=mxgraph.kubernetes.icon2;kubernetesLabel=1;prIcon=hpa" vertex="1" parent="eSSQTLTpPXMiFd9yhnWM-15">
          <mxGeometry x="494.57" y="359.72" width="50" height="48" as="geometry" />
        </mxCell>
        <mxCell id="IEoBhDquX4Ll0wp5H7QY-42" value="" style="aspect=fixed;sketch=0;html=1;dashed=0;whitespace=wrap;verticalLabelPosition=bottom;verticalAlign=top;fillColor=#2875E2;strokeColor=#ffffff;points=[[0.005,0.63,0],[0.1,0.2,0],[0.9,0.2,0],[0.5,0,0],[0.995,0.63,0],[0.72,0.99,0],[0.5,1,0],[0.28,0.99,0]];shape=mxgraph.kubernetes.icon2;kubernetesLabel=1;prIcon=svc" vertex="1" parent="eSSQTLTpPXMiFd9yhnWM-15">
          <mxGeometry x="610" y="359.72" width="49.25" height="47.28" as="geometry" />
        </mxCell>
        <mxCell id="eSSQTLTpPXMiFd9yhnWM-111" value="Cluster IP" style="text;html=1;align=center;verticalAlign=middle;whiteSpace=wrap;rounded=0;" vertex="1" parent="eSSQTLTpPXMiFd9yhnWM-15">
          <mxGeometry x="604.6299999999998" y="409" width="60" height="30" as="geometry" />
        </mxCell>
        <mxCell id="ySRl7X2KVEB3qlMEF3kM-95" value="" style="endArrow=none;dashed=1;html=1;rounded=0;exitX=0.5;exitY=0;exitDx=0;exitDy=0;exitPerimeter=0;entryX=0.5;entryY=0;entryDx=0;entryDy=0;" edge="1" parent="eSSQTLTpPXMiFd9yhnWM-15" source="ySRl7X2KVEB3qlMEF3kM-93" target="eSSQTLTpPXMiFd9yhnWM-391">
          <mxGeometry width="50" height="50" relative="1" as="geometry">
            <mxPoint x="450" y="450" as="sourcePoint" />
            <mxPoint x="500" y="400" as="targetPoint" />
          </mxGeometry>
        </mxCell>
        <mxCell id="ySRl7X2KVEB3qlMEF3kM-96" value="" style="endArrow=none;dashed=1;html=1;rounded=0;exitX=0.5;exitY=0;exitDx=0;exitDy=0;exitPerimeter=0;entryX=0.5;entryY=1;entryDx=0;entryDy=0;entryPerimeter=0;" edge="1" parent="eSSQTLTpPXMiFd9yhnWM-15" source="eSSQTLTpPXMiFd9yhnWM-453" target="ySRl7X2KVEB3qlMEF3kM-93">
          <mxGeometry width="50" height="50" relative="1" as="geometry">
            <mxPoint x="450" y="450" as="sourcePoint" />
            <mxPoint x="500" y="400" as="targetPoint" />
          </mxGeometry>
        </mxCell>
        <mxCell id="ySRl7X2KVEB3qlMEF3kM-97" value="" style="endArrow=classic;html=1;rounded=0;exitX=0.995;exitY=0.63;exitDx=0;exitDy=0;exitPerimeter=0;entryX=0.5;entryY=0;entryDx=0;entryDy=0;entryPerimeter=0;" edge="1" parent="eSSQTLTpPXMiFd9yhnWM-15" source="eSSQTLTpPXMiFd9yhnWM-382" target="IEoBhDquX4Ll0wp5H7QY-42">
          <mxGeometry width="50" height="50" relative="1" as="geometry">
            <mxPoint x="500" y="480" as="sourcePoint" />
            <mxPoint x="550" y="430" as="targetPoint" />
          </mxGeometry>
        </mxCell>
        <mxCell id="ySRl7X2KVEB3qlMEF3kM-98" value="" style="endArrow=classic;html=1;rounded=0;entryX=0.5;entryY=0;entryDx=0;entryDy=0;exitX=0.995;exitY=0.63;exitDx=0;exitDy=0;exitPerimeter=0;" edge="1" parent="eSSQTLTpPXMiFd9yhnWM-15" source="eSSQTLTpPXMiFd9yhnWM-453" target="eSSQTLTpPXMiFd9yhnWM-111">
          <mxGeometry width="50" height="50" relative="1" as="geometry">
            <mxPoint x="500" y="480" as="sourcePoint" />
            <mxPoint x="550" y="430" as="targetPoint" />
          </mxGeometry>
        </mxCell>
        <mxCell id="ySRl7X2KVEB3qlMEF3kM-102" value="" style="endArrow=none;dashed=1;html=1;rounded=0;entryX=0.5;entryY=1;entryDx=0;entryDy=0;entryPerimeter=0;exitX=0.5;exitY=0;exitDx=0;exitDy=0;exitPerimeter=0;" edge="1" parent="eSSQTLTpPXMiFd9yhnWM-15" source="eSSQTLTpPXMiFd9yhnWM-452" target="ySRl7X2KVEB3qlMEF3kM-94">
          <mxGeometry width="50" height="50" relative="1" as="geometry">
            <mxPoint x="500" y="480" as="sourcePoint" />
            <mxPoint x="550" y="430" as="targetPoint" />
          </mxGeometry>
        </mxCell>
        <mxCell id="ySRl7X2KVEB3qlMEF3kM-103" value="" style="endArrow=none;dashed=1;html=1;rounded=0;entryX=0.5;entryY=0;entryDx=0;entryDy=0;exitX=0.5;exitY=0;exitDx=0;exitDy=0;exitPerimeter=0;" edge="1" parent="eSSQTLTpPXMiFd9yhnWM-15" source="ySRl7X2KVEB3qlMEF3kM-94" target="eSSQTLTpPXMiFd9yhnWM-392">
          <mxGeometry width="50" height="50" relative="1" as="geometry">
            <mxPoint x="500" y="480" as="sourcePoint" />
            <mxPoint x="550" y="430" as="targetPoint" />
          </mxGeometry>
        </mxCell>
        <mxCell id="ySRl7X2KVEB3qlMEF3kM-104" value="" style="endArrow=classic;html=1;rounded=0;exitX=0.995;exitY=0.63;exitDx=0;exitDy=0;exitPerimeter=0;" edge="1" parent="eSSQTLTpPXMiFd9yhnWM-15" source="eSSQTLTpPXMiFd9yhnWM-383" target="eSSQTLTpPXMiFd9yhnWM-87">
          <mxGeometry width="50" height="50" relative="1" as="geometry">
            <mxPoint x="510" y="480" as="sourcePoint" />
            <mxPoint x="560" y="430" as="targetPoint" />
          </mxGeometry>
        </mxCell>
        <mxCell id="ySRl7X2KVEB3qlMEF3kM-105" value="" style="endArrow=classic;html=1;rounded=0;exitX=0.995;exitY=0.63;exitDx=0;exitDy=0;exitPerimeter=0;" edge="1" parent="eSSQTLTpPXMiFd9yhnWM-15" source="eSSQTLTpPXMiFd9yhnWM-452" target="eSSQTLTpPXMiFd9yhnWM-87">
          <mxGeometry width="50" height="50" relative="1" as="geometry">
            <mxPoint x="620" y="410" as="sourcePoint" />
            <mxPoint x="670" y="360" as="targetPoint" />
          </mxGeometry>
        </mxCell>
        <mxCell id="ySRl7X2KVEB3qlMEF3kM-106" value="" style="endArrow=none;dashed=1;html=1;rounded=0;" edge="1" parent="eSSQTLTpPXMiFd9yhnWM-15" source="eSSQTLTpPXMiFd9yhnWM-365" target="eSSQTLTpPXMiFd9yhnWM-87">
          <mxGeometry width="50" height="50" relative="1" as="geometry">
            <mxPoint x="660" y="430" as="sourcePoint" />
            <mxPoint x="710" y="380" as="targetPoint" />
          </mxGeometry>
        </mxCell>
        <mxCell id="ySRl7X2KVEB3qlMEF3kM-83" value="" style="endArrow=classic;html=1;rounded=0;entryX=0;entryY=1;entryDx=0;entryDy=0;" edge="1" parent="eSSQTLTpPXMiFd9yhnWM-15" source="ySRl7X2KVEB3qlMEF3kM-75" target="ySRl7X2KVEB3qlMEF3kM-70">
          <mxGeometry width="50" height="50" relative="1" as="geometry">
            <mxPoint x="300" y="360" as="sourcePoint" />
            <mxPoint x="420" y="270" as="targetPoint" />
          </mxGeometry>
        </mxCell>
        <mxCell id="ySRl7X2KVEB3qlMEF3kM-128" style="edgeStyle=orthogonalEdgeStyle;rounded=0;orthogonalLoop=1;jettySize=auto;html=1;" edge="1" parent="eSSQTLTpPXMiFd9yhnWM-15" source="eSSQTLTpPXMiFd9yhnWM-9" target="ySRl7X2KVEB3qlMEF3kM-75">
          <mxGeometry relative="1" as="geometry" />
        </mxCell>
        <mxCell id="ySRl7X2KVEB3qlMEF3kM-129" value="" style="endArrow=classic;html=1;rounded=0;entryX=1;entryY=0.5;entryDx=0;entryDy=0;exitX=0.005;exitY=0.63;exitDx=0;exitDy=0;exitPerimeter=0;" edge="1" parent="eSSQTLTpPXMiFd9yhnWM-15" source="IEoBhDquX4Ll0wp5H7QY-42" target="eSSQTLTpPXMiFd9yhnWM-28">
          <mxGeometry width="50" height="50" relative="1" as="geometry">
            <mxPoint x="530" y="370" as="sourcePoint" />
            <mxPoint x="580" y="320" as="targetPoint" />
            <Array as="points">
              <mxPoint x="570" y="390" />
              <mxPoint x="570" y="340" />
              <mxPoint x="380" y="340" />
              <mxPoint x="380" y="240" />
            </Array>
          </mxGeometry>
        </mxCell>
        <mxCell id="eSSQTLTpPXMiFd9yhnWM-33" value="Private subnet" style="points=[[0,0],[0.25,0],[0.5,0],[0.75,0],[1,0],[1,0.25],[1,0.5],[1,0.75],[1,1],[0.75,1],[0.5,1],[0.25,1],[0,1],[0,0.75],[0,0.5],[0,0.25]];outlineConnect=0;gradientColor=none;html=1;whiteSpace=wrap;fontSize=12;fontStyle=0;container=0;pointerEvents=0;collapsible=0;recursiveResize=0;shape=mxgraph.aws4.group;grIcon=mxgraph.aws4.group_security_group;grStroke=0;strokeColor=#00A4A6;fillColor=#E6F6F7;verticalAlign=top;align=left;spacingLeft=30;fontColor=#147EBA;dashed=0;" vertex="1" parent="eSSQTLTpPXMiFd9yhnWM-15">
          <mxGeometry x="950" y="510" width="220" height="190" as="geometry" />
        </mxCell>
        <mxCell id="eSSQTLTpPXMiFd9yhnWM-366" value="Maria DB (Standby)" style="text;html=1;align=center;verticalAlign=middle;whiteSpace=wrap;rounded=0;container=0;" vertex="1" parent="eSSQTLTpPXMiFd9yhnWM-15">
          <mxGeometry x="1013.39" y="557.2811059907834" width="86.82692307692307" height="26.267281105990783" as="geometry" />
        </mxCell>
        <mxCell id="eSSQTLTpPXMiFd9yhnWM-365" value="" style="sketch=0;outlineConnect=0;fontColor=#232F3E;gradientColor=none;fillColor=#C925D1;strokeColor=none;dashed=0;verticalLabelPosition=bottom;verticalAlign=top;align=center;html=1;fontSize=12;fontStyle=0;aspect=fixed;pointerEvents=1;shape=mxgraph.aws4.rds_instance;container=0;" vertex="1" parent="eSSQTLTpPXMiFd9yhnWM-15">
          <mxGeometry x="969.6153846153846" y="548.5253456221199" width="43.77880184331797" height="43.77880184331797" as="geometry" />
        </mxCell>
        <mxCell id="ySRl7X2KVEB3qlMEF3kM-136" value="" style="endArrow=none;dashed=1;html=1;rounded=0;entryX=0.995;entryY=0.63;entryDx=0;entryDy=0;entryPerimeter=0;dashPattern=1 4;" edge="1" parent="eSSQTLTpPXMiFd9yhnWM-15" target="eSSQTLTpPXMiFd9yhnWM-383">
          <mxGeometry width="50" height="50" relative="1" as="geometry">
            <mxPoint x="960" y="570" as="sourcePoint" />
            <mxPoint x="890" y="420" as="targetPoint" />
          </mxGeometry>
        </mxCell>
        <mxCell id="ySRl7X2KVEB3qlMEF3kM-135" value="" style="endArrow=none;dashed=1;html=1;rounded=0;exitX=0.995;exitY=0.63;exitDx=0;exitDy=0;exitPerimeter=0;dashPattern=1 4;" edge="1" parent="eSSQTLTpPXMiFd9yhnWM-15" source="eSSQTLTpPXMiFd9yhnWM-452" target="eSSQTLTpPXMiFd9yhnWM-365">
          <mxGeometry width="50" height="50" relative="1" as="geometry">
            <mxPoint x="840" y="470" as="sourcePoint" />
            <mxPoint x="890" y="420" as="targetPoint" />
          </mxGeometry>
        </mxCell>
        <mxCell id="eSSQTLTpPXMiFd9yhnWM-12" value="&lt;b&gt;Asia/Seoul&lt;br&gt;ap-northeast2&lt;/b&gt;" style="text;html=1;align=center;verticalAlign=middle;whiteSpace=wrap;rounded=0;" vertex="1" parent="1">
          <mxGeometry x="155" y="201" width="105" height="30" as="geometry" />
        </mxCell>
        <mxCell id="eSSQTLTpPXMiFd9yhnWM-62" value="" style="sketch=0;points=[[0,0,0],[0.25,0,0],[0.5,0,0],[0.75,0,0],[1,0,0],[0,1,0],[0.25,1,0],[0.5,1,0],[0.75,1,0],[1,1,0],[0,0.25,0],[0,0.5,0],[0,0.75,0],[1,0.25,0],[1,0.5,0],[1,0.75,0]];outlineConnect=0;fontColor=#232F3E;fillColor=#ED7100;strokeColor=#ffffff;dashed=0;verticalLabelPosition=bottom;verticalAlign=top;align=center;html=1;fontSize=12;fontStyle=0;aspect=fixed;shape=mxgraph.aws4.resourceIcon;resIcon=mxgraph.aws4.ecr;" vertex="1" parent="1">
          <mxGeometry x="500" y="231" width="48" height="48" as="geometry" />
        </mxCell>
        <mxCell id="eSSQTLTpPXMiFd9yhnWM-14" value="ap-nor&lt;span style=&quot;background-color: transparent; color: light-dark(rgb(0, 0, 0), rgb(255, 255, 255));&quot;&gt;theast2&lt;/span&gt;&lt;div&gt;ACM&lt;/div&gt;" style="text;html=1;align=center;verticalAlign=middle;whiteSpace=wrap;rounded=0;" vertex="1" parent="1">
          <mxGeometry x="350" y="286" width="80" height="30" as="geometry" />
        </mxCell>
        <mxCell id="eSSQTLTpPXMiFd9yhnWM-8" value="" style="sketch=0;points=[[0,0,0],[0.25,0,0],[0.5,0,0],[0.75,0,0],[1,0,0],[0,1,0],[0.25,1,0],[0.5,1,0],[0.75,1,0],[1,1,0],[0,0.25,0],[0,0.5,0],[0,0.75,0],[1,0.25,0],[1,0.5,0],[1,0.75,0]];outlineConnect=0;fontColor=#232F3E;fillColor=#DD344C;strokeColor=#ffffff;dashed=0;verticalLabelPosition=bottom;verticalAlign=top;align=center;html=1;fontSize=12;fontStyle=0;aspect=fixed;shape=mxgraph.aws4.resourceIcon;resIcon=mxgraph.aws4.certificate_manager_3;" vertex="1" parent="1">
          <mxGeometry x="370" y="242" width="40" height="40" as="geometry" />
        </mxCell>
        <mxCell id="eSSQTLTpPXMiFd9yhnWM-66" value="ECR" style="text;html=1;align=center;verticalAlign=middle;whiteSpace=wrap;rounded=0;" vertex="1" parent="1">
          <mxGeometry x="484" y="279" width="80" height="30" as="geometry" />
        </mxCell>
        <mxCell id="eSSQTLTpPXMiFd9yhnWM-74" value="AWS Account" style="points=[[0,0],[0.25,0],[0.5,0],[0.75,0],[1,0],[1,0.25],[1,0.5],[1,0.75],[1,1],[0.75,1],[0.5,1],[0.25,1],[0,1],[0,0.75],[0,0.5],[0,0.25]];outlineConnect=0;gradientColor=none;html=1;whiteSpace=wrap;fontSize=12;fontStyle=0;container=1;pointerEvents=0;collapsible=0;recursiveResize=0;shape=mxgraph.aws4.group;grIcon=mxgraph.aws4.group_account;strokeColor=#CD2264;fillColor=none;verticalAlign=top;align=left;spacingLeft=30;fontColor=#CD2264;dashed=0;" vertex="1" parent="1">
          <mxGeometry x="334" y="205" width="115" height="115" as="geometry" />
        </mxCell>
        <mxCell id="IEoBhDquX4Ll0wp5H7QY-50" value="AWS Cloud" style="points=[[0,0],[0.25,0],[0.5,0],[0.75,0],[1,0],[1,0.25],[1,0.5],[1,0.75],[1,1],[0.75,1],[0.5,1],[0.25,1],[0,1],[0,0.75],[0,0.5],[0,0.25]];outlineConnect=0;gradientColor=none;html=1;whiteSpace=wrap;fontSize=12;fontStyle=0;container=1;pointerEvents=0;collapsible=0;recursiveResize=0;shape=mxgraph.aws4.group;grIcon=mxgraph.aws4.group_aws_cloud_alt;strokeColor=#232F3E;fillColor=none;verticalAlign=top;align=left;spacingLeft=30;fontColor=#232F3E;dashed=0;" vertex="1" parent="1">
          <mxGeometry x="675" y="206" width="114" height="114" as="geometry" />
        </mxCell>
        <mxCell id="eSSQTLTpPXMiFd9yhnWM-43" value="" style="group" connectable="0" vertex="1" parent="1">
          <mxGeometry x="169" y="679" width="60" height="89" as="geometry" />
        </mxCell>
        <mxCell id="eSSQTLTpPXMiFd9yhnWM-5" value="" style="sketch=0;points=[[0,0,0],[0.25,0,0],[0.5,0,0],[0.75,0,0],[1,0,0],[0,1,0],[0.25,1,0],[0.5,1,0],[0.75,1,0],[1,1,0],[0,0.25,0],[0,0.5,0],[0,0.75,0],[1,0.25,0],[1,0.5,0],[1,0.75,0]];outlineConnect=0;fontColor=#232F3E;fillColor=#8C4FFF;strokeColor=#ffffff;dashed=0;verticalLabelPosition=bottom;verticalAlign=top;align=center;html=1;fontSize=12;fontStyle=0;aspect=fixed;shape=mxgraph.aws4.resourceIcon;resIcon=mxgraph.aws4.route_53;" vertex="1" parent="eSSQTLTpPXMiFd9yhnWM-43">
          <mxGeometry x="1" width="59" height="59" as="geometry" />
        </mxCell>
        <mxCell id="eSSQTLTpPXMiFd9yhnWM-7" value="Route53" style="text;html=1;align=center;verticalAlign=middle;whiteSpace=wrap;rounded=0;" vertex="1" parent="eSSQTLTpPXMiFd9yhnWM-43">
          <mxGeometry y="59" width="60" height="30" as="geometry" />
        </mxCell>
        <mxCell id="eSSQTLTpPXMiFd9yhnWM-11" style="edgeStyle=orthogonalEdgeStyle;rounded=0;orthogonalLoop=1;jettySize=auto;html=1;" edge="1" parent="1" source="eSSQTLTpPXMiFd9yhnWM-5" target="eSSQTLTpPXMiFd9yhnWM-9">
          <mxGeometry relative="1" as="geometry" />
        </mxCell>
        <mxCell id="ySRl7X2KVEB3qlMEF3kM-115" style="edgeStyle=orthogonalEdgeStyle;rounded=0;orthogonalLoop=1;jettySize=auto;html=1;exitX=0.5;exitY=1;exitDx=0;exitDy=0;" edge="1" parent="1" source="ySRl7X2KVEB3qlMEF3kM-31" target="ySRl7X2KVEB3qlMEF3kM-26">
          <mxGeometry relative="1" as="geometry" />
        </mxCell>
        <mxCell id="ySRl7X2KVEB3qlMEF3kM-24" value="" style="sketch=0;points=[[0,0,0],[0.25,0,0],[0.5,0,0],[0.75,0,0],[1,0,0],[0,1,0],[0.25,1,0],[0.5,1,0],[0.75,1,0],[1,1,0],[0,0.25,0],[0,0.5,0],[0,0.75,0],[1,0.25,0],[1,0.5,0],[1,0.75,0]];outlineConnect=0;fontColor=#232F3E;fillColor=#8C4FFF;strokeColor=#ffffff;dashed=0;verticalLabelPosition=bottom;verticalAlign=top;align=center;html=1;fontSize=12;fontStyle=0;aspect=fixed;shape=mxgraph.aws4.resourceIcon;resIcon=mxgraph.aws4.cloudfront;" vertex="1" parent="1">
          <mxGeometry x="169" y="246.50250000000005" width="42.5" height="42.5" as="geometry" />
        </mxCell>
        <mxCell id="ySRl7X2KVEB3qlMEF3kM-27" value="" style="sketch=0;outlineConnect=0;fontColor=#232F3E;gradientColor=none;fillColor=#8C4FFF;strokeColor=none;dashed=0;verticalLabelPosition=bottom;verticalAlign=top;align=center;html=1;fontSize=12;fontStyle=0;aspect=fixed;pointerEvents=1;shape=mxgraph.aws4.edge_location;" vertex="1" parent="1">
          <mxGeometry x="217.5" y="380.00374999999997" width="32.5" height="32.5" as="geometry" />
        </mxCell>
        <mxCell id="ySRl7X2KVEB3qlMEF3kM-28" value="" style="endArrow=classic;html=1;rounded=0;exitX=0.5;exitY=1;exitDx=0;exitDy=0;" edge="1" parent="1" source="ySRl7X2KVEB3qlMEF3kM-31">
          <mxGeometry width="50" height="50" relative="1" as="geometry">
            <mxPoint x="190" y="290" as="sourcePoint" />
            <mxPoint x="235.0590596802466" y="380.00374999999997" as="targetPoint" />
            <Array as="points" />
          </mxGeometry>
        </mxCell>
        <mxCell id="ySRl7X2KVEB3qlMEF3kM-26" value="" style="sketch=0;outlineConnect=0;fontColor=#232F3E;gradientColor=none;fillColor=#8C4FFF;strokeColor=none;dashed=0;verticalLabelPosition=bottom;verticalAlign=top;align=center;html=1;fontSize=12;fontStyle=0;aspect=fixed;pointerEvents=1;shape=mxgraph.aws4.edge_location;" vertex="1" parent="1">
          <mxGeometry x="176" y="380.00374999999997" width="32.5" height="32.5" as="geometry" />
        </mxCell>
        <mxCell id="ySRl7X2KVEB3qlMEF3kM-25" value="" style="sketch=0;outlineConnect=0;fontColor=#232F3E;gradientColor=none;fillColor=#8C4FFF;strokeColor=none;dashed=0;verticalLabelPosition=bottom;verticalAlign=top;align=center;html=1;fontSize=12;fontStyle=0;aspect=fixed;pointerEvents=1;shape=mxgraph.aws4.edge_location;" vertex="1" parent="1">
          <mxGeometry x="130" y="380.00374999999997" width="32.5" height="32.5" as="geometry" />
        </mxCell>
        <mxCell id="ySRl7X2KVEB3qlMEF3kM-118" value="" style="endArrow=classic;html=1;rounded=0;exitX=0.5;exitY=1;exitDx=0;exitDy=0;entryX=0.492;entryY=-0.045;entryDx=0;entryDy=0;entryPerimeter=0;" edge="1" parent="1" source="ySRl7X2KVEB3qlMEF3kM-31" target="ySRl7X2KVEB3qlMEF3kM-25">
          <mxGeometry width="50" height="50" relative="1" as="geometry">
            <mxPoint x="330" y="520" as="sourcePoint" />
            <mxPoint x="380" y="470" as="targetPoint" />
          </mxGeometry>
        </mxCell>
        <mxCell id="ySRl7X2KVEB3qlMEF3kM-31" value="CloudFront" style="text;html=1;align=center;verticalAlign=middle;whiteSpace=wrap;rounded=0;rotation=0;" vertex="1" parent="1">
          <mxGeometry x="162.5" y="295.52" width="60" height="13.4765625" as="geometry" />
        </mxCell>
        <mxCell id="ySRl7X2KVEB3qlMEF3kM-121" value="" style="endArrow=classic;html=1;rounded=0;exitX=0;exitY=0.5;exitDx=0;exitDy=0;exitPerimeter=0;entryX=0.5;entryY=0;entryDx=0;entryDy=0;entryPerimeter=0;" edge="1" parent="1" source="ySRl7X2KVEB3qlMEF3kM-24" target="eSSQTLTpPXMiFd9yhnWM-5">
          <mxGeometry width="50" height="50" relative="1" as="geometry">
            <mxPoint x="440" y="600" as="sourcePoint" />
            <mxPoint x="490" y="550" as="targetPoint" />
            <Array as="points">
              <mxPoint x="120" y="268" />
              <mxPoint x="120" y="400" />
              <mxPoint x="120" y="530" />
              <mxPoint x="200" y="530" />
            </Array>
          </mxGeometry>
        </mxCell>
        <mxCell id="ySRl7X2KVEB3qlMEF3kM-124" value="" style="endArrow=none;dashed=1;html=1;rounded=0;entryX=0.5;entryY=1;entryDx=0;entryDy=0;entryPerimeter=0;exitX=1;exitY=0.5;exitDx=0;exitDy=0;exitPerimeter=0;" edge="1" parent="1" source="eSSQTLTpPXMiFd9yhnWM-50" target="IEoBhDquX4Ll0wp5H7QY-53">
          <mxGeometry width="50" height="50" relative="1" as="geometry">
            <mxPoint x="730" y="680" as="sourcePoint" />
            <mxPoint x="780" y="630" as="targetPoint" />
            <Array as="points">
              <mxPoint x="730" y="393" />
            </Array>
          </mxGeometry>
        </mxCell>
        <mxCell id="ySRl7X2KVEB3qlMEF3kM-68" value="" style="sketch=0;outlineConnect=0;fontColor=#232F3E;gradientColor=none;fillColor=#ED7100;strokeColor=none;dashed=0;verticalLabelPosition=bottom;verticalAlign=top;align=center;html=1;fontSize=12;fontStyle=0;aspect=fixed;pointerEvents=1;shape=mxgraph.aws4.instance2;" vertex="1" parent="1">
          <mxGeometry x="363" y="450" width="40" height="40" as="geometry" />
        </mxCell>
        <mxCell id="eSSQTLTpPXMiFd9yhnWM-25" value="" style="sketch=0;outlineConnect=0;fontColor=#232F3E;gradientColor=none;fillColor=#8C4FFF;strokeColor=none;dashed=0;verticalLabelPosition=bottom;verticalAlign=top;align=center;html=1;fontSize=12;fontStyle=0;aspect=fixed;pointerEvents=1;shape=mxgraph.aws4.nat_gateway;" vertex="1" parent="1">
          <mxGeometry x="362" y="550" width="40" height="40" as="geometry" />
        </mxCell>
        <mxCell id="ySRl7X2KVEB3qlMEF3kM-127" value="Region" style="points=[[0,0],[0.25,0],[0.5,0],[0.75,0],[1,0],[1,0.25],[1,0.5],[1,0.75],[1,1],[0.75,1],[0.5,1],[0.25,1],[0,1],[0,0.75],[0,0.5],[0,0.25]];outlineConnect=0;gradientColor=none;html=1;whiteSpace=wrap;fontSize=12;fontStyle=0;container=1;pointerEvents=0;collapsible=0;recursiveResize=0;shape=mxgraph.aws4.group;grIcon=mxgraph.aws4.group_region;strokeColor=#00A4A6;fillColor=none;verticalAlign=top;align=left;spacingLeft=30;fontColor=#147EBA;dashed=1;" vertex="1" parent="1">
          <mxGeometry x="99" y="50" width="211" height="150" as="geometry" />
        </mxCell>
        <mxCell id="ySRl7X2KVEB3qlMEF3kM-36" value="US/East1" style="text;html=1;align=center;verticalAlign=middle;whiteSpace=wrap;rounded=0;fontSize=13;fontStyle=1" vertex="1" parent="ySRl7X2KVEB3qlMEF3kM-127">
          <mxGeometry x="70" y="-0.75" width="60" height="30" as="geometry" />
        </mxCell>
        <mxCell id="ySRl7X2KVEB3qlMEF3kM-138" value="AWS Account" style="points=[[0,0],[0.25,0],[0.5,0],[0.75,0],[1,0],[1,0.25],[1,0.5],[1,0.75],[1,1],[0.75,1],[0.5,1],[0.25,1],[0,1],[0,0.75],[0,0.5],[0,0.25]];outlineConnect=0;gradientColor=none;html=1;whiteSpace=wrap;fontSize=12;fontStyle=0;container=1;pointerEvents=0;collapsible=0;recursiveResize=0;shape=mxgraph.aws4.group;grIcon=mxgraph.aws4.group_account;strokeColor=#CD2264;fillColor=none;verticalAlign=top;align=left;spacingLeft=30;fontColor=#CD2264;dashed=0;" vertex="1" parent="ySRl7X2KVEB3qlMEF3kM-127">
          <mxGeometry x="40.5" y="25" width="119.5" height="110" as="geometry" />
        </mxCell>
        <mxCell id="ySRl7X2KVEB3qlMEF3kM-34" value="us-east-1&lt;div&gt;ACM&lt;/div&gt;" style="text;html=1;align=center;verticalAlign=middle;whiteSpace=wrap;rounded=0;" vertex="1" parent="ySRl7X2KVEB3qlMEF3kM-138">
          <mxGeometry x="29.5" y="80" width="60" height="30" as="geometry" />
        </mxCell>
        <mxCell id="ySRl7X2KVEB3qlMEF3kM-33" value="" style="sketch=0;points=[[0,0,0],[0.25,0,0],[0.5,0,0],[0.75,0,0],[1,0,0],[0,1,0],[0.25,1,0],[0.5,1,0],[0.75,1,0],[1,1,0],[0,0.25,0],[0,0.5,0],[0,0.75,0],[1,0.25,0],[1,0.5,0],[1,0.75,0]];outlineConnect=0;fontColor=#232F3E;fillColor=#DD344C;strokeColor=#ffffff;dashed=0;verticalLabelPosition=bottom;verticalAlign=top;align=center;html=1;fontSize=12;fontStyle=0;aspect=fixed;shape=mxgraph.aws4.resourceIcon;resIcon=mxgraph.aws4.certificate_manager_3;" vertex="1" parent="ySRl7X2KVEB3qlMEF3kM-138">
          <mxGeometry x="38.75" y="33.75" width="42.5" height="42.5" as="geometry" />
        </mxCell>
        <mxCell id="ySRl7X2KVEB3qlMEF3kM-130" value="" style="endArrow=classic;html=1;rounded=0;" edge="1" parent="1" source="eSSQTLTpPXMiFd9yhnWM-25" target="eSSQTLTpPXMiFd9yhnWM-9">
          <mxGeometry width="50" height="50" relative="1" as="geometry">
            <mxPoint x="790" y="700" as="sourcePoint" />
            <mxPoint x="840" y="650" as="targetPoint" />
          </mxGeometry>
        </mxCell>
      </root>
    </mxGraphModel>
  </diagram>
</mxfile>
